<svg xmlns="http://www.w3.org/2000/svg" viewBox="0 0 64 64" role="img" aria-labelledby="title desc">
  <title id="title">AgriPredict AI favicon</title>
  <desc id="desc">A minimal circular agriculture and AI icon with a leaf, field lines, and circuit nodes.</desc>
  <defs>
    <linearGradient id="bg" x1="10" y1="10" x2="54" y2="54" gradientUnits="userSpaceOnUse">
      <stop offset="0%" stop-color="#0c3d26"/>
      <stop offset="100%" stop-color="#1aba63"/>
    </linearGradient>
    <linearGradient id="leaf" x1="18" y1="14" x2="46" y2="50" gradientUnits="userSpaceOnUse">
      <stop offset="0%" stop-color="#d7ffe4"/>
      <stop offset="100%" stop-color="#63f3a0"/>
    </linearGradient>
  </defs>
  <circle cx="32" cy="32" r="30" fill="url(#bg)"/>
  <circle cx="32" cy="32" r="27" fill="none" stroke="rgba(255,255,255,0.08)" stroke-width="1.2"/>
  <path d="M19 41c6-8 13-13 22-16 0 8-3 15-8 20-5 5-11 8-16 8 0-4 1-8 2-12Z" fill="url(#leaf)" opacity="0.15"/>
  <path d="M23 19c6 3 11 7 15 12 3 5 4 10 4 15" fill="none" stroke="url(#leaf)" stroke-width="4" stroke-linecap="round" stroke-linejoin="round"/>
  <path d="M18 41h28" fill="none" stroke="rgba(242,255,246,0.95)" stroke-width="3" stroke-linecap="round"/>
  <path d="M21 46h22" fill="none" stroke="rgba(242,255,246,0.78)" stroke-width="2.5" stroke-linecap="round"/>
  <path d="M24 50h16" fill="none" stroke="rgba(242,255,246,0.6)" stroke-width="2" stroke-linecap="round"/>
  <circle cx="44" cy="22" r="2.8" fill="#f0fff4"/>
  <path d="M44 22l6-6M44 22l7 3M44 22l-5 6" fill="none" stroke="#f0fff4" stroke-width="1.5" stroke-linecap="round"/>
  <circle cx="18" cy="18" r="1.9" fill="#f0fff4"/>
  <path d="M18 18l6 4" fill="none" stroke="#f0fff4" stroke-width="1.3" stroke-linecap="round"/>
</svg>